<svg version="1.1" xmlns="http://www.w3.org/2000/svg" viewBox="0 0 1827.21259850446 411.4689061432806" width="1827.21259850446" height="411.4689061432806">
  <!-- svg-source:excalidraw -->
  
  <defs>
    <style class="style-fonts">
      @font-face {
        font-family: "Virgil";
        src: url("https://excalidraw.com/Virgil.woff2");
      }
      @font-face {
        font-family: "Cascadia";
        src: url("https://excalidraw.com/Cascadia.woff2");
      }
      @font-face {
        font-family: "Assistant";
        src: url("https://excalidraw.com/Assistant-Regular.woff2");
      }
    </style>
    
  </defs>
  <rect x="0" y="0" width="1827.21259850446" height="411.4689061432806" fill="#ffffff"></rect><g stroke-linecap="round" transform="translate(10.000000526531949 238.69759409227862) rotate(0 119.2071825776984 16.5)"><path d="M0 0 L238.41 0 L238.41 33 L0 33" stroke="none" stroke-width="0" fill="#FFFFFF"></path><path d="M0 0 C89.16 0, 178.33 0, 238.41 0 M0 0 C63.65 0, 127.3 0, 238.41 0 M238.41 0 C238.41 8.06, 238.41 16.12, 238.41 33 M238.41 0 C238.41 6.73, 238.41 13.45, 238.41 33 M238.41 33 C186.82 33, 135.23 33, 0 33 M238.41 33 C167.29 33, 96.16 33, 0 33 M0 33 C0 20.8, 0 8.6, 0 0 M0 33 C0 21.62, 0 10.25, 0 0" stroke="#000000" stroke-width="1" fill="none"></path></g><g transform="translate(24.700347166730353 243.69759409227862) rotate(0 104.5068359375 11.5)"><text x="104.5068359375" y="18.400390625" font-family="Helvetica, Segoe UI Emoji" font-size="20px" fill="#000000" text-anchor="middle" style="white-space: pre;" direction="ltr" dominant-baseline="alphabetic">/non-interactive/graphql</text></g><g stroke-linecap="round" transform="translate(10.00000052653104 184.00703209227862) rotate(0 80.44442750000007 16.5)"><path d="M0 0 L160.89 0 L160.89 33 L0 33" stroke="none" stroke-width="0" fill="#FFFFFF"></path><path d="M0 0 C50.28 0, 100.56 0, 160.89 0 M0 0 C50.6 0, 101.2 0, 160.89 0 M160.89 0 C160.89 8.37, 160.89 16.73, 160.89 33 M160.89 0 C160.89 7.15, 160.89 14.31, 160.89 33 M160.89 33 C101.62 33, 42.35 33, 0 33 M160.89 33 C125.46 33, 90.02 33, 0 33 M0 33 C0 25.24, 0 17.48, 0 0 M0 33 C0 23.57, 0 14.14, 0 0" stroke="#000000" stroke-width="1" fill="none"></path></g><g transform="translate(34.863373339031114 189.00703209227862) rotate(0 55.5810546875 11.5)"><text x="55.5810546875" y="18.400390625" font-family="Helvetica, Segoe UI Emoji" font-size="20px" fill="#000000" text-anchor="middle" style="white-space: pre;" direction="ltr" dominant-baseline="alphabetic">/rest/storage</text></g><g stroke-linecap="round"><g transform="translate(171.88885500000015 149.548536536607) rotate(0 77.0374712303576 14.186395918607019)"><path d="M0 0 C50.35 9.27, 100.7 18.54, 154.07 28.37 M0 0 C43.12 7.94, 86.25 15.88, 154.07 28.37" stroke="#1e1e1e" stroke-width="1" fill="none"></path></g><g transform="translate(171.88885500000015 149.548536536607) rotate(0 77.0374712303576 14.186395918607019)"><path d="M154.07 28.37 L139.56 32.15 L141.85 19.68 L154.07 28.37" stroke="none" stroke-width="0" fill="#1e1e1e" fill-rule="evenodd"></path><path d="M154.07 28.37 C149.33 29.61, 144.59 30.84, 139.56 32.15 M154.07 28.37 C150.01 29.43, 145.95 30.48, 139.56 32.15 M139.56 32.15 C140.09 29.26, 140.62 26.37, 141.85 19.68 M139.56 32.15 C140.22 28.52, 140.89 24.9, 141.85 19.68 M141.85 19.68 C146.43 22.93, 151.01 26.19, 154.07 28.37 M141.85 19.68 C145.24 22.08, 148.62 24.49, 154.07 28.37 M154.07 28.37 C154.07 28.37, 154.07 28.37, 154.07 28.37 M154.07 28.37 C154.07 28.37, 154.07 28.37, 154.07 28.37" stroke="#1e1e1e" stroke-width="1" fill="none"></path></g></g><mask></mask><g stroke-linecap="round" transform="translate(10 129.3164703789535) rotate(0 80.44442750000007 16.5)"><path d="M0 0 L160.89 0 L160.89 33 L0 33" stroke="none" stroke-width="0" fill="#FFFFFF"></path><path d="M0 0 C56.93 0, 113.87 0, 160.89 0 M0 0 C47.1 0, 94.21 0, 160.89 0 M160.89 0 C160.89 7.26, 160.89 14.52, 160.89 33 M160.89 0 C160.89 10.91, 160.89 21.82, 160.89 33 M160.89 33 C117.56 33, 74.24 33, 0 33 M160.89 33 C100.28 33, 39.67 33, 0 33 M0 33 C0 21.52, 0 10.05, 0 0 M0 33 C0 22.78, 0 12.55, 0 0" stroke="#000000" stroke-width="1" fill="none"></path></g><g transform="translate(54.306732187500074 134.3164703789535) rotate(0 36.1376953125 11.5)"><text x="36.1376953125" y="18.400390625" font-family="Helvetica, Segoe UI Emoji" font-size="20px" fill="#000000" text-anchor="middle" style="white-space: pre;" direction="ltr" dominant-baseline="alphabetic">/graphql</text></g><g stroke-linecap="round"><g transform="translate(171.8888555265312 203.88680569283332) rotate(0 76.89534365176019 -7.463057833455082)"><path d="M0 0 C51.26 -4.97, 102.51 -9.95, 153.79 -14.93 M0 0 C55.16 -5.35, 110.33 -10.71, 153.79 -14.93" stroke="#000000" stroke-width="1" fill="none"></path></g><g transform="translate(171.8888555265312 203.88680569283332) rotate(0 76.89534365176019 -7.463057833455082)"><path d="M153.79 -14.93 L140.87 -7.3 L139.65 -19.92 L153.79 -14.93" stroke="none" stroke-width="0" fill="#000000" fill-rule="evenodd"></path><path d="M153.79 -14.93 C149.49 -12.39, 145.18 -9.84, 140.87 -7.3 M153.79 -14.93 C149.16 -12.19, 144.52 -9.46, 140.87 -7.3 M140.87 -7.3 C140.6 -10.12, 140.32 -12.94, 139.65 -19.92 M140.87 -7.3 C140.57 -10.41, 140.27 -13.51, 139.65 -19.92 M139.65 -19.92 C145.19 -17.96, 150.74 -16, 153.79 -14.93 M139.65 -19.92 C145.26 -17.94, 150.87 -15.96, 153.79 -14.93 M153.79 -14.93 C153.79 -14.93, 153.79 -14.93, 153.79 -14.93 M153.79 -14.93 C153.79 -14.93, 153.79 -14.93, 153.79 -14.93" stroke="#000000" stroke-width="1" fill="none"></path></g></g><mask></mask><g stroke-linecap="round" transform="translate(327.3346001172231 162.48466942438398) rotate(0 151.75617309075756 21.099999999999994)"><path d="M10.55 0 C114.82 0, 219.09 0, 292.96 0 C300 0, 303.51 3.52, 303.51 10.55 C303.51 18.4, 303.51 26.24, 303.51 31.65 C303.51 38.68, 300 42.2, 292.96 42.2 C231.46 42.2, 169.96 42.2, 10.55 42.2 C3.52 42.2, 0 38.68, 0 31.65 C0 24.68, 0 17.71, 0 10.55 C0 3.52, 3.52 0, 10.55 0" stroke="none" stroke-width="0" fill="#ced4da"></path><path d="M10.55 0 C108.91 0, 207.27 0, 292.96 0 M10.55 0 C85.18 0, 159.81 0, 292.96 0 M292.96 0 C300 0, 303.51 3.52, 303.51 10.55 M292.96 0 C300 0, 303.51 3.52, 303.51 10.55 M303.51 10.55 C303.51 18.65, 303.51 26.75, 303.51 31.65 M303.51 10.55 C303.51 18.61, 303.51 26.67, 303.51 31.65 M303.51 31.65 C303.51 38.68, 300 42.2, 292.96 42.2 M303.51 31.65 C303.51 38.68, 300 42.2, 292.96 42.2 M292.96 42.2 C205.96 42.2, 118.96 42.2, 10.55 42.2 M292.96 42.2 C191.13 42.2, 89.31 42.2, 10.55 42.2 M10.55 42.2 C3.52 42.2, 0 38.68, 0 31.65 M10.55 42.2 C3.52 42.2, 0 38.68, 0 31.65 M0 31.65 C0 23.26, 0 14.87, 0 10.55 M0 31.65 C0 26.39, 0 21.13, 0 10.55 M0 10.55 C0 3.52, 3.52 0, 10.55 0 M0 10.55 C0 3.52, 3.52 0, 10.55 0" stroke="#1e1e1e" stroke-width="1" fill="none"></path></g><g transform="translate(352.2157732079804 167.48466942438398) rotate(0 126.875 16.099999999999994)"><text x="126.875" y="25.760546874999996" font-family="Helvetica, Segoe UI Emoji" font-size="28px" fill="#1e1e1e" text-anchor="middle" style="white-space: pre;" direction="ltr" dominant-baseline="alphabetic">oathkeeper:id_token</text></g><g stroke-linecap="round"><g transform="translate(634.347729595107 185.37120083616543) rotate(0 37.20972526105834 0.5136398933265554)"><path d="M0 0 C12.4 0.17, 62.02 0.86, 74.42 1.03 M0 0 C12.4 0.17, 62.02 0.86, 74.42 1.03" stroke="#1e1e1e" stroke-width="1" fill="none"></path></g><g transform="translate(634.347729595107 185.37120083616543) rotate(0 37.20972526105834 0.5136398933265554)"><path d="M74.42 1.03 L60.74 7.18 L60.91 -5.5 L74.42 1.03" stroke="none" stroke-width="0" fill="#1e1e1e" fill-rule="evenodd"></path><path d="M74.42 1.03 C71.27 2.44, 68.12 3.86, 60.74 7.18 M74.42 1.03 C70.89 2.61, 67.37 4.2, 60.74 7.18 M60.74 7.18 C60.78 4.05, 60.82 0.93, 60.91 -5.5 M60.74 7.18 C60.8 2.57, 60.87 -2.03, 60.91 -5.5 M60.91 -5.5 C64.09 -3.96, 67.27 -2.43, 74.42 1.03 M60.91 -5.5 C65.36 -3.35, 69.8 -1.21, 74.42 1.03 M74.42 1.03 C74.42 1.03, 74.42 1.03, 74.42 1.03 M74.42 1.03 C74.42 1.03, 74.42 1.03, 74.42 1.03" stroke="#1e1e1e" stroke-width="1" fill="none"></path></g></g><mask></mask><g mask="url(#mask-P_foPK_Ukg32RB6BgTTfb)" stroke-linecap="round"><g transform="translate(1167.3783691884578 224.9106406800248) rotate(0 177.4761496020476 -16.75335641002617)"><path d="M0 0 C59.16 -5.58, 295.79 -27.92, 354.95 -33.51 M0 0 C59.16 -5.58, 295.79 -27.92, 354.95 -33.51" stroke="#1e1e1e" stroke-width="1" fill="none"></path></g><g transform="translate(1167.3783691884578 224.9106406800248) rotate(0 177.4761496020476 -16.75335641002617)"><path d="M354.95 -33.51 L342.01 -25.92 L340.82 -38.54 L354.95 -33.51" stroke="none" stroke-width="0" fill="#1e1e1e" fill-rule="evenodd"></path><path d="M354.95 -33.51 C350.63 -30.97, 346.3 -28.43, 342.01 -25.92 M354.95 -33.51 C352.28 -31.94, 349.6 -30.37, 342.01 -25.92 M342.01 -25.92 C341.71 -29.16, 341.4 -32.41, 340.82 -38.54 M342.01 -25.92 C341.7 -29.21, 341.39 -32.5, 340.82 -38.54 M340.82 -38.54 C346.41 -36.55, 352 -34.56, 354.95 -33.51 M340.82 -38.54 C345.73 -36.79, 350.64 -35.04, 354.95 -33.51 M354.95 -33.51 C354.95 -33.51, 354.95 -33.51, 354.95 -33.51 M354.95 -33.51 C354.95 -33.51, 354.95 -33.51, 354.95 -33.51" stroke="#1e1e1e" stroke-width="1" fill="none"></path></g></g><mask id="mask-P_foPK_Ukg32RB6BgTTfb"><rect x="0" y="0" fill="#fff" width="1622.330668392553" height="358.4173535000772"></rect><rect x="1241.3515891030056" y="175.95728426999864" fill="#000" width="207.005859375" height="64.39999999999999" opacity="1"></rect></mask><g transform="translate(1241.3515891030056 175.95728426999864) rotate(0 103.50292968749977 32.2)"><text x="103.5029296875" y="25.760546874999996" font-family="Helvetica, Segoe UI Emoji" font-size="28px" fill="#1e1e1e" text-anchor="middle" style="white-space: pre;" direction="ltr" dominant-baseline="alphabetic">attaches user to </text><text x="103.5029296875" y="57.96054687499999" font-family="Helvetica, Segoe UI Emoji" font-size="28px" fill="#1e1e1e" text-anchor="middle" style="white-space: pre;" direction="ltr" dominant-baseline="alphabetic">ctx.req.user</text></g><g stroke-linecap="round" transform="translate(709.7671801172237 143.20524223803685) rotate(0 237.54233299999987 32.58679552448393)"><path d="M0 0 L475.08 0 L475.08 65.17 L0 65.17" stroke="none" stroke-width="0" fill="#ffa94d"></path><path d="M0 0 C139.73 0, 279.47 0, 475.08 0 M0 0 C161.05 0, 322.1 0, 475.08 0 M475.08 0 C475.08 13.93, 475.08 27.86, 475.08 65.17 M475.08 0 C475.08 22.65, 475.08 45.31, 475.08 65.17 M475.08 65.17 C290.91 65.17, 106.74 65.17, 0 65.17 M475.08 65.17 C371.14 65.17, 267.19 65.17, 0 65.17 M0 65.17 C0 43.69, 0 22.2, 0 0 M0 65.17 C0 45.12, 0 25.07, 0 0" stroke="#1e1e1e" stroke-width="1" fill="none"></path></g><g transform="translate(762.0966224922236 159.69203776252078) rotate(0 185.212890625 16.099999999999994)"><text x="185.212890625" y="25.760546874999996" font-family="Helvetica, Segoe UI Emoji" font-size="28px" fill="#1e1e1e" text-anchor="middle" style="white-space: pre;" direction="ltr" dominant-baseline="alphabetic">agent info resolver interceptor</text></g><g stroke-linecap="round" transform="translate(709.7671798925321 208.37883298275423) rotate(0 237.54233336037623 16.5)"><path d="M0 0 L475.08 0 L475.08 33 L0 33" stroke="none" stroke-width="0" fill="#FFFFFF"></path><path d="M0 0 C162.91 0, 325.83 0, 475.08 0 M0 0 C114.67 0, 229.34 0, 475.08 0 M475.08 0 C475.08 9.38, 475.08 18.76, 475.08 33 M475.08 0 C475.08 9.53, 475.08 19.07, 475.08 33 M475.08 33 C317.96 33, 160.83 33, 0 33 M475.08 33 C379.74 33, 284.39 33, 0 33 M0 33 C0 21.54, 0 10.09, 0 0 M0 33 C0 20.83, 0 8.67, 0 0" stroke="#000000" stroke-width="1" fill="none"></path></g><g transform="translate(845.0292398154083 213.37883298275423) rotate(0 102.2802734375 11.5)"><text x="102.2802734375" y="18.400390625" font-family="Helvetica, Segoe UI Emoji" font-size="20px" fill="#000000" text-anchor="middle" style="white-space: pre;" direction="ltr" dominant-baseline="alphabetic">passport.authenticate()</text></g><g stroke-linecap="round" transform="translate(1554.0628251172225 336.8362757538829) rotate(0 117.5010964999999 32.31631503508592)"><path d="M235 32.32 C235 33.44, 234.79 34.57, 234.36 35.69 C233.93 36.81, 233.29 37.93, 232.43 39.04 C231.58 40.14, 230.52 41.23, 229.25 42.3 C227.99 43.37, 226.51 44.43, 224.84 45.46 C223.18 46.49, 221.31 47.5, 219.26 48.47 C217.21 49.45, 214.97 50.4, 212.56 51.31 C210.16 52.22, 207.56 53.1, 204.82 53.94 C202.08 54.78, 199.17 55.58, 196.12 56.33 C193.08 57.09, 189.88 57.8, 186.57 58.46 C183.25 59.12, 179.8 59.74, 176.25 60.3 C172.71 60.87, 169.03 61.38, 165.29 61.84 C161.55 62.3, 157.7 62.7, 153.81 63.05 C149.92 63.4, 145.94 63.69, 141.93 63.93 C137.93 64.16, 133.85 64.34, 129.78 64.46 C125.71 64.57, 121.6 64.63, 117.5 64.63 C113.41 64.63, 109.29 64.57, 105.22 64.46 C101.15 64.34, 97.08 64.16, 93.07 63.93 C89.07 63.69, 85.08 63.4, 81.19 63.05 C77.3 62.7, 73.45 62.3, 69.71 61.84 C65.97 61.38, 62.3 60.87, 58.75 60.3 C55.2 59.74, 51.75 59.12, 48.44 58.46 C45.12 57.8, 41.92 57.09, 38.88 56.33 C35.84 55.58, 32.92 54.78, 30.18 53.94 C27.44 53.1, 24.85 52.22, 22.44 51.31 C20.03 50.4, 17.79 49.45, 15.74 48.47 C13.7 47.5, 11.82 46.49, 10.16 45.46 C8.49 44.43, 7.02 43.37, 5.75 42.3 C4.49 41.23, 3.42 40.14, 2.57 39.04 C1.72 37.93, 1.07 36.81, 0.64 35.69 C0.22 34.57, 0 33.44, 0 32.32 C0 31.19, 0.22 30.06, 0.64 28.94 C1.07 27.82, 1.72 26.7, 2.57 25.6 C3.42 24.5, 4.49 23.4, 5.75 22.33 C7.02 21.26, 8.49 20.2, 10.16 19.17 C11.82 18.14, 13.7 17.13, 15.74 16.16 C17.79 15.18, 20.03 14.23, 22.44 13.32 C24.85 12.41, 27.44 11.53, 30.18 10.69 C32.92 9.86, 35.84 9.05, 38.88 8.3 C41.92 7.55, 45.12 6.83, 48.44 6.17 C51.75 5.51, 55.2 4.89, 58.75 4.33 C62.3 3.77, 65.97 3.25, 69.71 2.79 C73.45 2.34, 77.3 1.93, 81.19 1.58 C85.08 1.23, 89.07 0.94, 93.07 0.71 C97.08 0.47, 101.15 0.29, 105.22 0.18 C109.29 0.06, 113.41 0, 117.5 0 C121.6 0, 125.71 0.06, 129.78 0.18 C133.85 0.29, 137.93 0.47, 141.93 0.71 C145.94 0.94, 149.92 1.23, 153.81 1.58 C157.7 1.93, 161.55 2.34, 165.29 2.79 C169.03 3.25, 172.71 3.77, 176.25 4.33 C179.8 4.89, 183.25 5.51, 186.57 6.17 C189.88 6.83, 193.08 7.55, 196.12 8.3 C199.17 9.05, 202.08 9.86, 204.82 10.69 C207.56 11.53, 210.16 12.41, 212.56 13.32 C214.97 14.23, 217.21 15.18, 219.26 16.16 C221.31 17.13, 223.18 18.14, 224.84 19.17 C226.51 20.2, 227.99 21.26, 229.25 22.33 C230.52 23.4, 231.58 24.5, 232.43 25.6 C233.29 26.7, 233.93 27.82, 234.36 28.94 C234.79 30.06, 234.89 31.75, 235 32.32 C235.11 32.88, 235.11 31.75, 235 32.32" stroke="none" stroke-width="0" fill="#a5d8ff"></path><path d="M235 32.32 C235 33.44, 234.79 34.57, 234.36 35.69 C233.93 36.81, 233.29 37.93, 232.43 39.04 C231.58 40.14, 230.52 41.23, 229.25 42.3 C227.99 43.37, 226.51 44.43, 224.84 45.46 C223.18 46.49, 221.31 47.5, 219.26 48.47 C217.21 49.45, 214.97 50.4, 212.56 51.31 C210.16 52.22, 207.56 53.1, 204.82 53.94 C202.08 54.78, 199.17 55.58, 196.12 56.33 C193.08 57.09, 189.88 57.8, 186.57 58.46 C183.25 59.12, 179.8 59.74, 176.25 60.3 C172.71 60.87, 169.03 61.38, 165.29 61.84 C161.55 62.3, 157.7 62.7, 153.81 63.05 C149.92 63.4, 145.94 63.69, 141.93 63.93 C137.93 64.16, 133.85 64.34, 129.78 64.46 C125.71 64.57, 121.6 64.63, 117.5 64.63 C113.41 64.63, 109.29 64.57, 105.22 64.46 C101.15 64.34, 97.08 64.16, 93.07 63.93 C89.07 63.69, 85.08 63.4, 81.19 63.05 C77.3 62.7, 73.45 62.3, 69.71 61.84 C65.97 61.38, 62.3 60.87, 58.75 60.3 C55.2 59.74, 51.75 59.12, 48.44 58.46 C45.12 57.8, 41.92 57.09, 38.88 56.33 C35.84 55.58, 32.92 54.78, 30.18 53.94 C27.44 53.1, 24.85 52.22, 22.44 51.31 C20.03 50.4, 17.79 49.45, 15.74 48.47 C13.7 47.5, 11.82 46.49, 10.16 45.46 C8.49 44.43, 7.02 43.37, 5.75 42.3 C4.49 41.23, 3.42 40.14, 2.57 39.04 C1.72 37.93, 1.07 36.81, 0.64 35.69 C0.22 34.57, 0 33.44, 0 32.32 C0 31.19, 0.22 30.06, 0.64 28.94 C1.07 27.82, 1.72 26.7, 2.57 25.6 C3.42 24.5, 4.49 23.4, 5.75 22.33 C7.02 21.26, 8.49 20.2, 10.16 19.17 C11.82 18.14, 13.7 17.13, 15.74 16.16 C17.79 15.18, 20.03 14.23, 22.44 13.32 C24.85 12.41, 27.44 11.53, 30.18 10.69 C32.92 9.86, 35.84 9.05, 38.88 8.3 C41.92 7.55, 45.12 6.83, 48.44 6.17 C51.75 5.51, 55.2 4.89, 58.75 4.33 C62.3 3.77, 65.97 3.25, 69.71 2.79 C73.45 2.34, 77.3 1.93, 81.19 1.58 C85.08 1.23, 89.07 0.94, 93.07 0.71 C97.08 0.47, 101.15 0.29, 105.22 0.18 C109.29 0.06, 113.41 0, 117.5 0 C121.6 0, 125.71 0.06, 129.78 0.18 C133.85 0.29, 137.93 0.47, 141.93 0.71 C145.94 0.94, 149.92 1.23, 153.81 1.58 C157.7 1.93, 161.55 2.34, 165.29 2.79 C169.03 3.25, 172.71 3.77, 176.25 4.33 C179.8 4.89, 183.25 5.51, 186.57 6.17 C189.88 6.83, 193.08 7.55, 196.12 8.3 C199.17 9.05, 202.08 9.86, 204.82 10.69 C207.56 11.53, 210.16 12.41, 212.56 13.32 C214.97 14.23, 217.21 15.18, 219.26 16.16 C221.31 17.13, 223.18 18.14, 224.84 19.17 C226.51 20.2, 227.99 21.26, 229.25 22.33 C230.52 23.4, 231.58 24.5, 232.43 25.6 C233.29 26.7, 233.93 27.82, 234.36 28.94 C234.79 30.06, 234.89 31.75, 235 32.32 C235.11 32.88, 235.11 31.75, 235 32.32" stroke="#1e1e1e" stroke-width="1" fill="none"></path></g><g transform="translate(1600.2085682352176 357.8015052846988) rotate(0 71.26953125 11.5)"><text x="71.26953125" y="18.400390625" font-family="Helvetica, Segoe UI Emoji" font-size="20px" fill="#1e1e1e" text-anchor="middle" style="white-space: pre;" direction="ltr" dominant-baseline="alphabetic">@CurrentUser()</text></g><g stroke-linecap="round"><g transform="translate(1663.6736798972497 335.9102098885542) rotate(0 -0.8388725269103361 -47.837149350089774)"><path d="M0 0 C-0.28 -15.95, -1.4 -79.73, -1.68 -95.67 M0 0 C-0.28 -15.95, -1.4 -79.73, -1.68 -95.67" stroke="#1e1e1e" stroke-width="1" fill="none"></path></g><g transform="translate(1663.6736798972497 335.9102098885542) rotate(0 -0.8388725269103361 -47.837149350089774)"><path d="M-1.68 -95.67 L4.9 -82.19 L-7.78 -81.97 L-1.68 -95.67" stroke="none" stroke-width="0" fill="#1e1e1e" fill-rule="evenodd"></path><path d="M-1.68 -95.67 C-0.18 -92.61, 1.31 -89.55, 4.9 -82.19 M-1.68 -95.67 C0.41 -91.39, 2.5 -87.11, 4.9 -82.19 M4.9 -82.19 C1.69 -82.14, -1.51 -82.08, -7.78 -81.97 M4.9 -82.19 C1.92 -82.14, -1.05 -82.09, -7.78 -81.97 M-7.78 -81.97 C-6.01 -85.94, -4.24 -89.91, -1.68 -95.67 M-7.78 -81.97 C-5.46 -87.18, -3.14 -92.39, -1.68 -95.67 M-1.68 -95.67 C-1.68 -95.67, -1.68 -95.67, -1.68 -95.67 M-1.68 -95.67 C-1.68 -95.67, -1.68 -95.67, -1.68 -95.67" stroke="#1e1e1e" stroke-width="1" fill="none"></path></g></g><mask></mask><g stroke-linecap="round" transform="translate(1524.1229561172236 149.5485366157572) rotate(0 146.5448211936182 44.427689835623795)"><path d="M-2.87 -3.01 L294.28 -1.79 L296.69 85.93 L-3.98 85.41" stroke="none" stroke-width="0" fill="#ffa94d"></path><path d="M0.16 0.76 C69.66 -0.58, 134.23 -3.24, 291.71 -0.49 M1 0.16 C97.86 2.81, 196.41 3.81, 293.34 -0.75 M294.95 3.53 C296.32 27.44, 293.51 62.47, 292.99 86.05 M293.94 1.43 C292.42 28.27, 295.32 52.1, 292.07 89.17 M294.8 86.72 C201.65 87.58, 109.59 87.15, -1.24 88.05 M291.93 89.69 C217.93 90.15, 140.43 87.74, -0.96 87.9 M-1.85 92.16 C2.7 73.66, -0.58 49.74, -3.14 1.45 M-1.86 88.5 C2.3 55.97, 2.24 26.77, 0.56 0.42" stroke="#1e1e1e" stroke-width="1" fill="none"></path></g><g transform="translate(1533.6824257483418 161.776226451381) rotate(0 136.9853515625 32.2)"><text x="136.9853515625" y="25.760546874999996" font-family="Helvetica, Segoe UI Emoji" font-size="28px" fill="#1e1e1e" text-anchor="middle" style="white-space: pre;" direction="ltr" dominant-baseline="alphabetic">agent info is attached </text><text x="136.9853515625" y="57.96054687499999" font-family="Helvetica, Segoe UI Emoji" font-size="28px" fill="#1e1e1e" text-anchor="middle" style="white-space: pre;" direction="ltr" dominant-baseline="alphabetic">to ctx.req.user</text></g><g stroke-linecap="round" transform="translate(325.12616511722354 10) rotate(0 746.0432165 36.597739143502395)"><path d="M18.3 0 C581.75 0, 1145.21 0, 1473.79 0 C1485.99 0, 1492.09 6.1, 1492.09 18.3 C1492.09 26.2, 1492.09 34.09, 1492.09 54.9 C1492.09 67.1, 1485.99 73.2, 1473.79 73.2 C1030.41 73.2, 587.03 73.2, 18.3 73.2 C6.1 73.2, 0 67.1, 0 54.9 C0 44.31, 0 33.72, 0 18.3 C0 6.1, 6.1 0, 18.3 0" stroke="none" stroke-width="0" fill="#ffc9c9"></path><path d="M18.3 0 C599.29 0, 1180.28 0, 1473.79 0 M18.3 0 C541.25 0, 1064.21 0, 1473.79 0 M1473.79 0 C1485.99 0, 1492.09 6.1, 1492.09 18.3 M1473.79 0 C1485.99 0, 1492.09 6.1, 1492.09 18.3 M1492.09 18.3 C1492.09 26.32, 1492.09 34.34, 1492.09 54.9 M1492.09 18.3 C1492.09 26.41, 1492.09 34.51, 1492.09 54.9 M1492.09 54.9 C1492.09 67.1, 1485.99 73.2, 1473.79 73.2 M1492.09 54.9 C1492.09 67.1, 1485.99 73.2, 1473.79 73.2 M1473.79 73.2 C1157.94 73.2, 842.09 73.2, 18.3 73.2 M1473.79 73.2 C1113.06 73.2, 752.34 73.2, 18.3 73.2 M18.3 73.2 C6.1 73.2, 0 67.1, 0 54.9 M18.3 73.2 C6.1 73.2, 0 67.1, 0 54.9 M0 54.9 C0 46.66, 0 38.42, 0 18.3 M0 54.9 C0 44.2, 0 33.5, 0 18.3 M0 18.3 C0 6.1, 6.1 0, 18.3 0 M0 18.3 C0 6.1, 6.1 0, 18.3 0" stroke="#1e1e1e" stroke-width="1" fill="none"></path></g><g transform="translate(905.3910613047233 30.497739143502372) rotate(0 165.7783203125 16.099999999999994)"><text x="165.7783203125" y="25.760546874999996" font-family="Helvetica, Segoe UI Emoji" font-size="28px" fill="#1e1e1e" text-anchor="middle" style="white-space: pre;" direction="ltr" dominant-baseline="alphabetic">executed once per request</text></g><g stroke-linecap="round" transform="translate(951.225764943601 368.4689061432806) rotate(0 143.77367708681095 16.5)"><path d="M0 0 L287.55 0 L287.55 33 L0 33" stroke="none" stroke-width="0" fill="#FFFFFF"></path><path d="M0 0 C71.78 0, 143.56 0, 287.55 0 M0 0 C67.51 0, 135.03 0, 287.55 0 M287.55 0 C287.55 8.08, 287.55 16.16, 287.55 33 M287.55 0 C287.55 8, 287.55 16, 287.55 33 M287.55 33 C181.28 33, 75.02 33, 0 33 M287.55 33 C211.55 33, 135.55 33, 0 33 M0 33 C0 24.86, 0 16.72, 0 0 M0 33 C0 20.86, 0 8.73, 0 0" stroke="#000000" stroke-width="1" fill="none"></path></g><g transform="translate(1029.408621717912 373.4689061432806) rotate(0 65.5908203125 11.5)"><text x="65.5908203125" y="18.400390625" font-family="Helvetica, Segoe UI Emoji" font-size="20px" fill="#000000" text-anchor="middle" style="white-space: pre;" direction="ltr" dominant-baseline="alphabetic">oathkeeper-jwt</text></g><g stroke-linecap="round" transform="translate(951.225765128971 334.7028142451626) rotate(0 143.7736771936177 17.25)"><path d="M0 0 L287.55 0 L287.55 34.5 L0 34.5" stroke="none" stroke-width="0" fill="#ffa94d"></path><path d="M0 0 C89.6 0, 179.2 0, 287.55 0 M0 0 C95.11 0, 190.22 0, 287.55 0 M287.55 0 C287.55 10.17, 287.55 20.33, 287.55 34.5 M287.55 0 C287.55 7.51, 287.55 15.02, 287.55 34.5 M287.55 34.5 C227.06 34.5, 166.57 34.5, 0 34.5 M287.55 34.5 C203.02 34.5, 118.5 34.5, 0 34.5 M0 34.5 C0 21.79, 0 9.07, 0 0 M0 34.5 C0 22.33, 0 10.15, 0 0" stroke="#1e1e1e" stroke-width="1" fill="none"></path></g><g transform="translate(1041.6498329475885 340.4528142451626) rotate(0 53.349609375 11.5)"><text x="53.349609375" y="18.400390625" font-family="Helvetica, Segoe UI Emoji" font-size="20px" fill="#000000" text-anchor="middle" style="white-space: pre;" direction="ltr" dominant-baseline="alphabetic">OryStrategy</text></g><g stroke-linecap="round" transform="translate(655.8459069436021 368.4689061432806) rotate(0 143.77367708681095 16.5)"><path d="M0 0 L287.55 0 L287.55 33 L0 33" stroke="none" stroke-width="0" fill="#FFFFFF"></path><path d="M0 0 C89.47 0, 178.93 0, 287.55 0 M0 0 C102.29 0, 204.58 0, 287.55 0 M287.55 0 C287.55 11.67, 287.55 23.35, 287.55 33 M287.55 0 C287.55 8.88, 287.55 17.77, 287.55 33 M287.55 33 C216.53 33, 145.51 33, 0 33 M287.55 33 C192.67 33, 97.8 33, 0 33 M0 33 C0 21.9, 0 10.79, 0 0 M0 33 C0 22.43, 0 11.87, 0 0" stroke="#000000" stroke-width="1" fill="none"></path></g><g transform="translate(705.1127480929131 373.4689061432806) rotate(0 94.5068359375 11.5)"><text x="94.5068359375" y="18.400390625" font-family="Helvetica, Segoe UI Emoji" font-size="20px" fill="#000000" text-anchor="middle" style="white-space: pre;" direction="ltr" dominant-baseline="alphabetic">oathkeeper-api-token</text></g><g stroke-linecap="round" transform="translate(655.8459071289722 334.70281424516264) rotate(0 143.7736771936177 17.25)"><path d="M0 0 L287.55 0 L287.55 34.5 L0 34.5" stroke="none" stroke-width="0" fill="#ffa94d"></path><path d="M0 0 C58.28 0, 116.56 0, 287.55 0 M0 0 C79.1 0, 158.21 0, 287.55 0 M287.55 0 C287.55 13.33, 287.55 26.66, 287.55 34.5 M287.55 0 C287.55 12.11, 287.55 24.22, 287.55 34.5 M287.55 34.5 C202.37 34.5, 117.19 34.5, 0 34.5 M287.55 34.5 C175.89 34.5, 64.23 34.5, 0 34.5 M0 34.5 C0 23.66, 0 12.83, 0 0 M0 34.5 C0 25.81, 0 17.13, 0 0" stroke="#1e1e1e" stroke-width="1" fill="none"></path></g><g transform="translate(731.8168499475896 340.45281424516264) rotate(0 67.802734375 11.5)"><text x="67.802734375" y="18.400390625" font-family="Helvetica, Segoe UI Emoji" font-size="20px" fill="#000000" text-anchor="middle" style="white-space: pre;" direction="ltr" dominant-baseline="alphabetic">OryApiStrategy</text></g><g stroke-linecap="round"><g transform="translate(1069.9930003290506 242.37883300638038) rotate(0 -6.083295298703661 46.31870204759795)"><path d="M0 0 C-2.03 7.85, -11.83 31.66, -12.17 47.1 C-12.5 62.54, -3.69 85.05, -2 92.64 M0 0 C-2.03 7.85, -11.83 31.66, -12.17 47.1 C-12.5 62.54, -3.69 85.05, -2 92.64" stroke="#f08c00" stroke-width="1" fill="none"></path></g><g transform="translate(1069.9930003290506 242.37883300638038) rotate(0 -6.083295298703661 46.31870204759795)"><path d="M-2 92.64 L-11.9 81.37 L0.27 77.81 L-2 92.64" stroke="none" stroke-width="0" fill="#f08c00" fill-rule="evenodd"></path><path d="M-2 92.64 C-5.69 88.44, -9.38 84.24, -11.9 81.37 M-2 92.64 C-4.71 89.56, -7.41 86.48, -11.9 81.37 M-11.9 81.37 C-7.86 80.19, -3.82 79.01, 0.27 77.81 M-11.9 81.37 C-9.43 80.65, -6.95 79.92, 0.27 77.81 M0.27 77.81 C-0.19 80.83, -0.66 83.85, -2 92.64 M0.27 77.81 C-0.63 83.69, -1.53 89.57, -2 92.64 M-2 92.64 C-2 92.64, -2 92.64, -2 92.64 M-2 92.64 C-2 92.64, -2 92.64, -2 92.64" stroke="#f08c00" stroke-width="1" fill="none"></path></g></g><mask></mask><g stroke-linecap="round"><g transform="translate(805.6786623017042 244.87522198275423) rotate(0 2.3071808598958796 44.41379613120421)"><path d="M0 0 C-2 7.98, -14.74 33.1, -11.98 47.9 C-9.21 62.71, 11.83 82.01, 16.59 88.83 M0 0 C-2 7.98, -14.74 33.1, -11.98 47.9 C-9.21 62.71, 11.83 82.01, 16.59 88.83" stroke="#f08c00" stroke-width="1" fill="none"></path></g><g transform="translate(805.6786623017042 244.87522198275423) rotate(0 2.3071808598958796 44.41379613120421)"><path d="M16.59 88.83 L2.93 82.62 L12.57 74.38 L16.59 88.83" stroke="none" stroke-width="0" fill="#f08c00" fill-rule="evenodd"></path><path d="M16.59 88.83 C12.69 87.06, 8.8 85.29, 2.93 82.62 M16.59 88.83 C13 87.2, 9.41 85.57, 2.93 82.62 M2.93 82.62 C6.21 79.82, 9.48 77.02, 12.57 74.38 M2.93 82.62 C6.64 79.45, 10.35 76.27, 12.57 74.38 M12.57 74.38 C14.12 79.94, 15.67 85.51, 16.59 88.83 M12.57 74.38 C13.92 79.22, 15.27 84.07, 16.59 88.83 M16.59 88.83 C16.59 88.83, 16.59 88.83, 16.59 88.83 M16.59 88.83 C16.59 88.83, 16.59 88.83, 16.59 88.83" stroke="#f08c00" stroke-width="1" fill="none"></path></g></g><mask></mask><g stroke-linecap="round"><g transform="translate(1106.5925863382495 333.1020282746278) rotate(0 -1.4956336900618226 -45.36159764593678)"><path d="M0 0 C1.34 -8.07, 9.88 -33.31, 8.04 -48.43 C6.2 -63.56, -7.85 -83.68, -11.03 -90.72 M0 0 C1.34 -8.07, 9.88 -33.31, 8.04 -48.43 C6.2 -63.56, -7.85 -83.68, -11.03 -90.72" stroke="#2f9e44" stroke-width="1" fill="none"></path></g><g transform="translate(1106.5925863382495 333.1020282746278) rotate(0 -1.4956336900618226 -45.36159764593678)"><path d="M-11.03 -90.72 L1.08 -81.88 L-10.02 -75.76 L-11.03 -90.72" stroke="none" stroke-width="0" fill="#2f9e44" fill-rule="evenodd"></path><path d="M-11.03 -90.72 C-6.91 -87.71, -2.78 -84.7, 1.08 -81.88 M-11.03 -90.72 C-7.03 -87.8, -3.03 -84.88, 1.08 -81.88 M1.08 -81.88 C-1.55 -80.43, -4.18 -78.98, -10.02 -75.76 M1.08 -81.88 C-1.73 -80.33, -4.54 -78.78, -10.02 -75.76 M-10.02 -75.76 C-10.3 -79.94, -10.59 -84.13, -11.03 -90.72 M-10.02 -75.76 C-10.28 -79.56, -10.53 -83.35, -11.03 -90.72 M-11.03 -90.72 C-11.03 -90.72, -11.03 -90.72, -11.03 -90.72 M-11.03 -90.72 C-11.03 -90.72, -11.03 -90.72, -11.03 -90.72" stroke="#2f9e44" stroke-width="1" fill="none"></path></g></g><mask></mask><g stroke-linecap="round"><g transform="translate(841.1594973925016 333.10202827462774) rotate(0 -3.521704636699269 -45.36159764593677)"><path d="M0 0 C1.01 -7.08, 8.23 -27.38, 6.05 -42.5 C3.87 -57.62, -9.9 -82.69, -13.09 -90.72 M0 0 C1.01 -7.08, 8.23 -27.38, 6.05 -42.5 C3.87 -57.62, -9.9 -82.69, -13.09 -90.72" stroke="#2f9e44" stroke-width="1" fill="none"></path></g><g transform="translate(841.1594973925016 333.10202827462774) rotate(0 -3.521704636699269 -45.36159764593677)"><path d="M-13.09 -90.72 L-1.64 -81.04 L-13.15 -75.72 L-13.09 -90.72" stroke="none" stroke-width="0" fill="#2f9e44" fill-rule="evenodd"></path><path d="M-13.09 -90.72 C-10.28 -88.34, -7.46 -85.96, -1.64 -81.04 M-13.09 -90.72 C-9.17 -87.41, -5.25 -84.1, -1.64 -81.04 M-1.64 -81.04 C-5.8 -79.12, -9.96 -77.2, -13.15 -75.72 M-1.64 -81.04 C-4.06 -79.92, -6.48 -78.8, -13.15 -75.72 M-13.15 -75.72 C-13.12 -81.69, -13.1 -87.65, -13.09 -90.72 M-13.15 -75.72 C-13.13 -80.91, -13.11 -86.09, -13.09 -90.72 M-13.09 -90.72 C-13.09 -90.72, -13.09 -90.72, -13.09 -90.72 M-13.09 -90.72 C-13.09 -90.72, -13.09 -90.72, -13.09 -90.72" stroke="#2f9e44" stroke-width="1" fill="none"></path></g></g><mask></mask><g stroke-linecap="round"><g transform="translate(250.4964258303171 243.77843754973918) rotate(0 38.195776143453145 -20.612416807994578)"><path d="M0 0 C12.73 -6.87, 63.66 -34.35, 76.39 -41.22 M0 0 C12.73 -6.87, 63.66 -34.35, 76.39 -41.22" stroke="#1e1e1e" stroke-width="1" fill="none"></path></g><g transform="translate(250.4964258303171 243.77843754973918) rotate(0 38.195776143453145 -20.612416807994578)"><path d="M76.39 -41.22 L67.44 -29.19 L61.42 -40.35 L76.39 -41.22" stroke="none" stroke-width="0" fill="#1e1e1e" fill-rule="evenodd"></path><path d="M76.39 -41.22 C73.16 -36.88, 69.93 -32.54, 67.44 -29.19 M76.39 -41.22 C73.88 -37.85, 71.37 -34.48, 67.44 -29.19 M67.44 -29.19 C65.81 -32.21, 64.17 -35.24, 61.42 -40.35 M67.44 -29.19 C65.9 -32.05, 64.35 -34.91, 61.42 -40.35 M61.42 -40.35 C66.71 -40.66, 72.01 -40.97, 76.39 -41.22 M61.42 -40.35 C67.12 -40.68, 72.83 -41.02, 76.39 -41.22 M76.39 -41.22 C76.39 -41.22, 76.39 -41.22, 76.39 -41.22 M76.39 -41.22 C76.39 -41.22, 76.39 -41.22, 76.39 -41.22" stroke="#1e1e1e" stroke-width="1" fill="none"></path></g></g><mask></mask></svg>